<?xml version="1.0" encoding="UTF-8" standalone="no"?>
<!DOCTYPE svg PUBLIC "-//W3C//DTD SVG 1.1//EN" "http://www.w3.org/Graphics/SVG/1.1/DTD/svg11.dtd">
<svg width="100%" height="100%" viewBox="0 0 600 600" version="1.1" xmlns="http://www.w3.org/2000/svg" xmlns:xlink="http://www.w3.org/1999/xlink" xml:space="preserve" xmlns:serif="http://www.serif.com/" style="fill-rule:evenodd;clip-rule:evenodd;stroke-linejoin:round;stroke-miterlimit:2;">
    <g transform="matrix(3.3564,0,0,3.3564,-19.0099,-0.397427)">
        <path d="M82.807,2.105C42.423,4.961 10.16,37.224 7.304,77.608C7.081,80.76 9.569,83.442 12.728,83.442L83.206,83.442C86.189,83.442 88.643,80.988 88.643,78.005L88.643,7.53C88.643,4.371 85.96,1.885 82.808,2.106L82.807,2.105ZM182.787,77.608C179.931,37.224 147.668,4.961 107.284,2.105C104.132,1.882 101.45,4.37 101.45,7.529L101.45,78.007C101.45,80.99 103.904,83.444 106.887,83.444L177.363,83.444C180.522,83.444 183.008,80.761 182.787,77.609L182.787,77.608ZM175.09,94.18C134.706,97.035 102.443,129.298 99.587,169.682C99.364,172.834 101.852,175.516 105.011,175.516L175.489,175.516C178.472,175.516 180.926,173.062 180.926,170.079L180.926,99.603C180.926,96.444 178.243,93.958 175.091,94.179L175.09,94.18ZM7.305,101.392C10.161,141.776 42.424,174.039 82.808,176.895C85.96,177.118 88.642,174.63 88.642,171.471L88.642,100.993C88.642,98.01 86.188,95.556 83.205,95.556L12.73,95.556C9.571,95.556 7.085,98.239 7.306,101.391L7.305,101.392Z" style="fill-rule:nonzero;"/>
    </g>
</svg>
