<?xml version="1.0" encoding="UTF-8" standalone="no"?>
<!DOCTYPE svg PUBLIC "-//W3C//DTD SVG 1.1//EN" "http://www.w3.org/Graphics/SVG/1.1/DTD/svg11.dtd">
<svg width="100%" height="100%" viewBox="0 0 2340 600" version="1.1" xmlns="http://www.w3.org/2000/svg" xmlns:xlink="http://www.w3.org/1999/xlink" xml:space="preserve" xmlns:serif="http://www.serif.com/" style="fill-rule:evenodd;clip-rule:evenodd;stroke-linejoin:round;stroke-miterlimit:2;">
    <g transform="matrix(4.16667,0,0,4.16667,-854.337,-42.4723)">
        <path d="M263.61,130.57L225.97,20.52L215.76,20.52L215.76,145.99L225.97,145.99L225.97,50.09L258.24,145.99L269.17,145.99L301.97,50.09L301.97,145.99L312.01,145.99L312.01,20.52L301.97,20.52L263.61,130.57ZM404.68,118.03L404.68,20.52L394.46,20.52L394.46,70.17C394.46,74.23 393.563,77.693 391.77,80.56C389.977,83.433 387.617,85.707 384.69,87.38C381.763,89.053 378.537,90.277 375.01,91.05C371.49,91.83 367.997,92.22 364.53,92.22C358.437,92.22 353.177,91.203 348.75,89.17C344.33,87.137 340.957,84.09 338.63,80.03C336.297,75.963 335.13,70.883 335.13,64.79L335.13,20.52L325.09,20.52L325.09,64.43C325.09,72.077 326.527,78.71 329.4,84.33C332.267,89.943 336.477,94.303 342.03,97.41C347.59,100.517 354.373,102.07 362.38,102.07C366.2,102.07 370.143,101.683 374.21,100.91C378.27,100.13 382.093,98.933 385.68,97.32C389.267,95.707 392.193,93.647 394.46,91.14L394.46,118.56C394.46,121.553 394.25,124.243 393.83,126.63C393.417,129.023 392.76,131.143 391.86,132.99C390.967,134.843 389.833,136.397 388.46,137.65C387.087,138.91 385.443,139.897 383.53,140.61L385.86,147.24C391.833,146.407 396.463,143.51 399.75,138.55C403.037,133.59 404.68,126.75 404.68,118.03M453.79,145.99L453.79,29.48L485.34,29.48L485.34,20.52L413.28,20.52L413.28,29.48L443.93,29.48L443.93,145.99L453.79,145.99ZM561.16,20.52L561.16,72.14L504.34,72.14L504.34,20.52L494.12,20.52L494.12,145.99L504.34,145.99L504.34,82L561.16,82L561.16,145.99L571.38,145.99L571.38,20.52L561.16,20.52ZM585.18,54.93L585.18,112.65C585.18,120.417 586.883,126.93 590.29,132.19C593.697,137.443 598.267,141.387 604,144.02C609.733,146.647 616.127,147.96 623.18,147.96C630.587,147.96 637.13,146.527 642.81,143.66C648.483,140.793 652.903,136.73 656.07,131.47C659.237,126.21 660.82,119.937 660.82,112.65L660.82,55.11C660.82,43.403 657.533,34.233 650.96,27.6C644.387,20.967 635.187,17.65 623.36,17.65C611.527,17.65 602.207,20.817 595.4,27.15C588.587,33.483 585.18,42.743 585.18,54.93M595.4,112.47L595.4,53.32C595.4,47.467 596.533,42.627 598.8,38.8C601.073,34.973 604.27,32.077 608.39,30.11C612.517,28.137 617.327,27.15 622.82,27.15C628.553,27.15 633.513,28.137 637.7,30.11C641.88,32.077 645.107,34.973 647.38,38.8C649.647,42.627 650.78,47.467 650.78,53.32L650.78,112.47C650.78,118.323 649.587,123.193 647.2,127.08C644.807,130.96 641.52,133.827 637.34,135.68C633.16,137.533 628.32,138.46 622.82,138.46C617.56,138.46 612.87,137.473 608.75,135.5C604.63,133.533 601.373,130.637 598.98,126.81C596.593,122.983 595.4,118.203 595.4,112.47M742.74,34.14L745.6,25.54C742.853,23.987 739.957,22.73 736.91,21.77C733.863,20.817 730.787,20.1 727.68,19.62C724.573,19.14 721.407,18.9 718.18,18.9C713.28,18.9 708.47,19.44 703.75,20.52C699.03,21.593 694.727,23.327 690.84,25.72C686.96,28.107 683.853,31.273 681.52,35.22C679.193,39.16 678.03,43.94 678.03,49.56C678.03,54.22 678.987,58.28 680.9,61.74C682.807,65.207 685.373,68.197 688.6,70.71C691.827,73.217 695.473,75.457 699.54,77.43C703.6,79.403 707.75,81.223 711.99,82.89C716.237,84.563 720.39,86.297 724.45,88.09C728.517,89.883 732.163,91.887 735.39,94.1C738.617,96.307 741.183,98.877 743.09,101.81C745.003,104.737 745.96,108.23 745.96,112.29C745.96,117.07 745.093,121.133 743.36,124.48C741.627,127.827 739.237,130.517 736.19,132.55C733.143,134.577 729.68,136.07 725.8,137.03C721.913,137.983 717.88,138.46 713.7,138.46C709.633,138.46 705.33,137.893 700.79,136.76C696.25,135.627 691.95,133.923 687.89,131.65C683.823,129.377 680.537,126.567 678.03,123.22L671.75,129.5C675.457,133.8 679.52,137.323 683.94,140.07C688.36,142.823 693.14,144.857 698.28,146.17C703.42,147.483 708.797,148.14 714.41,148.14C719.67,148.14 724.81,147.483 729.83,146.17C734.85,144.857 739.39,142.793 743.45,139.98C747.517,137.173 750.743,133.59 753.13,129.23C755.523,124.87 756.72,119.7 756.72,113.72C756.72,108.227 755.763,103.477 753.85,99.47C751.937,95.47 749.337,92.067 746.05,89.26C742.763,86.453 739.12,84.003 735.12,81.91C731.113,79.817 726.93,77.933 722.57,76.26C718.21,74.587 714.027,72.913 710.02,71.24C706.02,69.567 702.377,67.717 699.09,65.69C695.803,63.657 693.203,61.267 691.29,58.52C689.377,55.767 688.42,52.48 688.42,48.66C688.42,44.713 689.347,41.427 691.2,38.8C693.053,36.173 695.503,34.113 698.55,32.62C701.597,31.127 704.853,30.08 708.32,29.48C711.787,28.88 715.133,28.58 718.36,28.58C721.227,28.58 724.063,28.76 726.87,29.12C729.677,29.48 732.427,30.077 735.12,30.91C737.807,31.75 740.347,32.827 742.74,34.14" style="fill-rule:nonzero;"/>
    </g>
</svg>
