<svg xmlns="http://www.w3.org/2000/svg" version="1.1" xmlns:xlink="http://www.w3.org/1999/xlink" xmlns:svgjs="http://svgjs.dev/svgjs" width="1500" height="1500" viewBox="0 0 1500 1500"><rect width="1500" height="1500" fill="#ffffff"></rect><g transform="matrix(0.6666666666666666,0,0,0.6666666666666666,249.39393939393938,539.7987664649497)"><svg viewBox="0 0 396 167" data-background-color="#ffffff" preserveAspectRatio="xMidYMid meet" height="632" width="1500" xmlns="http://www.w3.org/2000/svg" xmlns:xlink="http://www.w3.org/1999/xlink"><g id="tight-bounds" transform="matrix(1,0,0,1,0.2400000000000091,-0.18447942954095709)"><svg viewBox="0 0 395.52 167.3689588590819" height="167.3689588590819" width="395.52"><g><svg viewBox="0 0 395.52 167.3689588590819" height="167.3689588590819" width="395.52"><g transform="matrix(1,0,0,1,0,103.44073108453225)"><svg viewBox="0 0 395.52 63.928227774549676" height="63.928227774549676" width="395.52"><g id="textblocktransform"><svg viewBox="0 0 395.52 63.928227774549676" height="63.928227774549676" width="395.52" id="textblock"><g><svg viewBox="0 0 395.52 63.928227774549676" height="63.928227774549676" width="395.52"><g transform="matrix(1,0,0,1,0,0)"><svg width="395.52" viewBox="0.35 -33.13 258.12 41.730000000000004" height="63.928227774549676" data-palette-color="#556970"><path d="M12.18 0.5L12.18 0.5Q9.35 0.5 7.63-0.35 5.9-1.2 5.13-2.93 4.35-4.65 4.35-7.23L4.35-7.23 4.35-22.63 8.35-22.63 8.35-7.7Q8.35-5.3 9.45-4.16 10.55-3.03 13.15-3.03L13.15-3.03Q14.63-3.03 15.99-3.35 17.35-3.68 18.55-4.28L18.55-4.28 18.18-0.8Q17-0.2 15.43 0.15 13.85 0.5 12.18 0.5ZM17.93-20.8L0.35-20.8 0.35-24.05 18.3-24.05 17.93-20.8ZM8.25-23.65L4.38-23.65 4.35-30.5 8.43-31.03 8.25-23.65ZM41.57 0L37.55 0 37.72-5.93 37.57-6.55 37.57-14.33 37.6-15.75Q37.6-18.73 36.09-20.15 34.57-21.58 31.3-21.58L31.3-21.58Q28.67-21.58 26.48-20.83 24.3-20.08 22.6-19.07L22.6-19.07 22.97-22.53Q23.92-23.1 25.23-23.66 26.55-24.23 28.23-24.6 29.92-24.98 31.95-24.98L31.95-24.98Q34.57-24.98 36.41-24.34 38.25-23.7 39.39-22.5 40.52-21.3 41.05-19.6 41.57-17.9 41.57-15.8L41.57-15.8 41.57 0ZM29.15 0.53L29.15 0.53Q25.52 0.53 23.59-1.24 21.65-3 21.65-6.28L21.65-6.28 21.65-7Q21.65-10.38 23.73-12.04 25.82-13.7 30.37-14.35L30.37-14.35 38.1-15.45 38.32-12.5 30.87-11.43Q28.07-11.03 26.87-10.06 25.67-9.1 25.67-7.23L25.67-7.23 25.67-6.83Q25.67-4.9 26.86-3.88 28.05-2.85 30.42-2.85L30.42-2.85Q32.52-2.85 34.02-3.58 35.52-4.3 36.45-5.53 37.37-6.75 37.7-8.25L37.7-8.25 38.32-5.5 37.55-5.5Q37.2-3.9 36.23-2.53 35.27-1.15 33.55-0.31 31.82 0.53 29.15 0.53ZM51.92 0L47.9 0 47.9-33.13 51.92-33.13 51.92 0ZM68.89 0.55L68.89 0.55Q63.32 0.55 60.49-2.18 57.67-4.9 57.67-9.98L57.67-9.98 57.67-14.33Q57.67-19.48 60.29-22.26 62.92-25.05 67.97-25.05L67.97-25.05Q71.37-25.05 73.64-23.79 75.92-22.53 77.07-20.2 78.22-17.88 78.22-14.65L78.22-14.65 78.22-13.75Q78.22-12.95 78.16-12.15 78.09-11.35 77.99-10.58L77.99-10.58 74.27-10.58Q74.32-11.78 74.33-12.85 74.34-13.93 74.34-14.83L74.34-14.83Q74.34-17.05 73.63-18.59 72.92-20.13 71.51-20.94 70.09-21.75 67.97-21.75L67.97-21.75Q64.82-21.75 63.24-19.93 61.67-18.1 61.67-14.7L61.67-14.7 61.67-12.38 61.69-11.88 61.69-9.55Q61.69-8.03 62.14-6.8 62.59-5.58 63.56-4.69 64.52-3.8 66.01-3.34 67.49-2.88 69.54-2.88L69.54-2.88Q71.92-2.88 73.97-3.5 76.02-4.13 77.82-5.2L77.82-5.2 77.44-1.7Q75.82-0.68 73.67-0.06 71.52 0.55 68.89 0.55ZM77.14-10.58L59.79-10.58 59.79-13.63 77.14-13.63 77.14-10.58ZM103.99 0L99.94 0 99.94-15.18Q99.94-17.15 99.4-18.57 98.87-20 97.65-20.79 96.44-21.58 94.34-21.58L94.34-21.58Q92.42-21.58 91-20.85 89.59-20.13 88.72-18.89 87.84-17.65 87.49-16.07L87.49-16.07 86.77-18.95 87.64-18.95Q88.04-20.6 89.04-21.96 90.04-23.33 91.73-24.14 93.42-24.95 95.87-24.95L95.87-24.95Q98.77-24.95 100.55-23.85 102.34-22.75 103.17-20.69 103.99-18.63 103.99-15.63L103.99-15.63 103.99 0ZM87.67 0L83.62 0 83.62-24.4 87.67-24.4 87.49-18.55 87.67-18.32 87.67 0ZM119.14 0.5L119.14 0.5Q116.31 0.5 114.59-0.35 112.86-1.2 112.09-2.93 111.31-4.65 111.31-7.23L111.31-7.23 111.31-22.63 115.31-22.63 115.31-7.7Q115.31-5.3 116.41-4.16 117.51-3.03 120.11-3.03L120.11-3.03Q121.59-3.03 122.95-3.35 124.31-3.68 125.51-4.28L125.51-4.28 125.14-0.8Q123.96-0.2 122.39 0.15 120.81 0.5 119.14 0.5ZM124.89-20.8L107.31-20.8 107.31-24.05 125.26-24.05 124.89-20.8ZM115.21-23.65L111.34-23.65 111.31-30.5 115.39-31.03 115.21-23.65ZM152.58 0.53L152.58 0.53Q150.33 0.53 148.68-0.23 147.03-0.98 146.01-2.38 144.98-3.78 144.63-5.63L144.63-5.63 143.31-5.63 144.48-9.43Q144.58-7.23 145.47-5.76 146.36-4.3 147.88-3.58 149.41-2.85 151.33-2.85L151.33-2.85Q154.41-2.85 156.05-4.65 157.68-6.45 157.68-9.93L157.68-9.93 157.68-14.6Q157.68-18.05 156.06-19.85 154.43-21.65 151.33-21.65L151.33-21.65Q149.48-21.65 148.06-20.93 146.63-20.2 145.7-18.95 144.76-17.7 144.41-16.1L144.41-16.1 143.41-18.93 144.58-18.93Q144.98-20.6 145.95-21.96 146.91-23.33 148.6-24.14 150.28-24.95 152.76-24.95L152.76-24.95Q157.16-24.95 159.46-22.21 161.76-19.48 161.76-14.28L161.76-14.28 161.76-10.23Q161.76-4.98 159.45-2.23 157.13 0.53 152.58 0.53ZM144.58 8.6L140.56 8.6 140.56-24.4 144.61-24.4 144.43-18.53 144.48-17.28 144.48-7 144.46-6.18 144.58 0.68 144.58 8.6ZM171.26-14.93L171.26-14.93 170.33-18.05 171.33-18.1Q172.13-21.2 174.08-22.99 176.03-24.78 179.26-24.78L179.26-24.78Q180.06-24.78 180.69-24.65 181.33-24.53 181.83-24.35L181.83-24.35 182.08-20.43Q181.46-20.63 180.69-20.75 179.93-20.88 179.01-20.88L179.01-20.88Q176.26-20.88 174.22-19.35 172.18-17.82 171.26-14.93ZM171.46 0L167.41 0 167.41-24.4 171.36-24.4 171.16-17.2 171.46-16.9 171.46 0ZM195.75 0.63L195.75 0.63Q190.5 0.63 187.79-2.21 185.08-5.05 185.08-10.38L185.08-10.38 185.08-14.1Q185.08-19.4 187.8-22.23 190.53-25.05 195.75-25.05L195.75-25.05Q201-25.05 203.72-22.23 206.43-19.4 206.43-14.1L206.43-14.1 206.43-10.38Q206.43-5.05 203.72-2.21 201 0.63 195.75 0.63ZM195.75-2.68L195.75-2.68Q199-2.68 200.69-4.6 202.38-6.53 202.38-10.15L202.38-10.15 202.38-14.33Q202.38-17.93 200.69-19.84 199-21.75 195.75-21.75L195.75-21.75Q192.53-21.75 190.83-19.84 189.13-17.93 189.13-14.33L189.13-14.33 189.13-10.15Q189.13-6.53 190.83-4.6 192.53-2.68 195.75-2.68ZM224.08 0.53L224.08 0.53Q221.83 0.53 220.16-0.23 218.5-0.98 217.48-2.38 216.45-3.78 216.1-5.63L216.1-5.63 214.75-5.63 215.98-9.43Q216.1-7.23 217.01-5.76 217.93-4.3 219.45-3.58 220.98-2.85 222.9-2.85L222.9-2.85Q225.95-2.85 227.56-4.65 229.18-6.45 229.18-10L229.18-10 229.18-14.58Q229.18-18.05 227.55-19.85 225.93-21.65 222.83-21.65L222.83-21.65Q220.98-21.65 219.55-20.93 218.13-20.2 217.19-18.95 216.25-17.7 215.9-16.1L215.9-16.1 214.98-18.93 216.13-18.93Q216.5-20.6 217.46-21.96 218.43-23.33 220.1-24.14 221.78-24.95 224.25-24.95L224.25-24.95Q228.65-24.95 230.95-22.21 233.25-19.48 233.25-14.28L233.25-14.28 233.25-10.23Q233.25-4.98 230.91-2.23 228.58 0.53 224.08 0.53ZM216.1 0L212.05 0 212.05-33.13 216.08-33.13 216.08-25.18 215.95-18.18 215.98-17.4 215.98-7.2 215.93-5.9 216.1 0ZM249.15 0.55L249.15 0.55Q243.57 0.55 240.75-2.18 237.92-4.9 237.92-9.98L237.92-9.98 237.92-14.33Q237.92-19.48 240.55-22.26 243.17-25.05 248.22-25.05L248.22-25.05Q251.62-25.05 253.9-23.79 256.17-22.53 257.32-20.2 258.47-17.88 258.47-14.65L258.47-14.65 258.47-13.75Q258.47-12.95 258.41-12.15 258.35-11.35 258.25-10.58L258.25-10.58 254.52-10.58Q254.57-11.78 254.59-12.85 254.6-13.93 254.6-14.83L254.6-14.83Q254.6-17.05 253.89-18.59 253.17-20.13 251.76-20.94 250.35-21.75 248.22-21.75L248.22-21.75Q245.07-21.75 243.5-19.93 241.92-18.1 241.92-14.7L241.92-14.7 241.92-12.38 241.95-11.88 241.95-9.55Q241.95-8.03 242.4-6.8 242.85-5.58 243.81-4.69 244.77-3.8 246.26-3.34 247.75-2.88 249.8-2.88L249.8-2.88Q252.17-2.88 254.22-3.5 256.27-4.13 258.07-5.2L258.07-5.2 257.7-1.7Q256.07-0.68 253.92-0.06 251.77 0.55 249.15 0.55ZM257.4-10.58L240.05-10.58 240.05-13.63 257.4-13.63 257.4-10.58Z" opacity="1" transform="matrix(1,0,0,1,0,0)" fill="#556970" class="wordmark-text-0" data-fill-palette-color="primary" id="text-0"></path></svg></g></svg></g></svg></g></svg></g><g transform="matrix(1,0,0,1,153.58559460778616,0)"><svg viewBox="0 0 88.34881078442766 88.34881078442766" height="88.34881078442766" width="88.34881078442766"><g><svg></svg></g><g id="icon-0"><svg viewBox="0 0 88.34881078442766 88.34881078442766" height="88.34881078442766" width="88.34881078442766"><g><path transform="scale(0.88349,0.88349)" d="M30 100c-16.569 0-30-13.431-30-30v-40c0-16.569 13.431-30 30-30h40c16.569 0 30 13.431 30 30v40c0 16.569-13.431 30-30 30z" fill="#aba944" fill-rule="nonzero" stroke="none" stroke-width="1" stroke-linecap="butt" stroke-linejoin="miter" stroke-miterlimit="10" stroke-dasharray="" stroke-dashoffset="0" font-family="none" font-weight="none" font-size="none" text-anchor="none" style="mix-blend-mode: normal" data-fill-palette-color="accent"></path></g><g transform="matrix(1,0,0,1,17.669762156885533,27.181984118008913)"><svg viewBox="0 0 53.00928647065659 33.98484254840983" height="33.98484254840983" width="53.00928647065659"><g><svg xmlns="http://www.w3.org/2000/svg" xmlns:xlink="http://www.w3.org/1999/xlink" version="1.1" x="0" y="0" viewBox="5 21.1 90 57.699999999999996" style="enable-background:new 0 0 100 100;" xml:space="preserve" height="33.98484254840983" width="53.00928647065659" class="icon-dxe-0" data-fill-palette-color="quaternary" id="dxe-0"><g fill="#ffffff" data-fill-palette-color="quaternary"><path d="M83.1 38.5C87 38.5 90.1 35.4 90.1 31.5S87 24.5 83.1 24.5 76.1 27.6 76.1 31.5 79.2 38.5 83.1 38.5M83.1 27.1C85.5 27.1 87.5 29.1 87.5 31.5S85.5 35.9 83.1 35.9 78.7 33.9 78.7 31.5 80.7 27.1 83.1 27.1" fill="#ffffff" data-fill-palette-color="quaternary"></path><path d="M88.4 40.1H77.8C74.1 40.1 71.2 43.1 71.2 46.7V51.3C71.2 55 74.2 57.9 77.8 57.9H84.6V55.3H77.8C75.6 55.3 73.8 53.5 73.8 51.3V46.7C73.8 44.5 75.6 42.7 77.8 42.7H88.3C90.5 42.7 92.3 44.5 92.3 46.7V51.3H95V46.7C95 43.1 92 40.1 88.4 40.1" fill="#ffffff" data-fill-palette-color="quaternary"></path><path d="M71.2 66.2V78.8H73.8V66.2C73.8 64 75.6 62.2 77.8 62.2H93.7V59.6H77.8C74.2 59.6 71.2 62.5 71.2 66.2" fill="#ffffff" data-fill-palette-color="quaternary"></path><path d="M16.9 38.5C20.8 38.5 23.9 35.4 23.9 31.5S20.8 24.5 16.9 24.5 9.9 27.6 9.9 31.5 13 38.5 16.9 38.5M16.9 27.1C19.3 27.1 21.3 29.1 21.3 31.5S19.3 35.9 16.9 35.9 12.5 33.9 12.5 31.5 14.5 27.1 16.9 27.1" fill="#ffffff" data-fill-palette-color="quaternary"></path><path d="M22.2 40.1H11.6C7.9 40.1 5 43.1 5 46.7V51.3H7.6V46.7C7.6 44.5 9.4 42.7 11.6 42.7H22.1C24.3 42.7 26.1 44.5 26.1 46.7V51.3C26.1 53.5 24.3 55.3 22.1 55.3H15.3V57.9H22.1C25.8 57.9 28.7 54.9 28.7 51.3V46.7C28.8 43.1 25.8 40.1 22.2 40.1" fill="#ffffff" data-fill-palette-color="quaternary"></path><path d="M22.2 59.6H6.3V62.2H22.2C24.4 62.2 26.2 64 26.2 66.2V78.8H28.8V66.2C28.8 62.5 25.8 59.6 22.2 59.6" fill="#ffffff" data-fill-palette-color="quaternary"></path><polygon points="29.6,60 33.7,60 33.7,78.8 36.3,78.8 36.3,60 63.7,60 63.7,78.8 66.3,78.8 66.3,60 70.4,60    70.4,57.4 29.6,57.4  " fill="#ffffff" data-fill-palette-color="quaternary"></polygon><path d="M50 23.8C53.3 23.8 56 26.5 56 29.8S53.3 35.8 50 35.8H48.7V46H51.3V38.2C55.4 37.6 58.6 34 58.6 29.7 58.6 25 54.7 21.1 50 21.1S41.4 25 41.4 29.7H44C44 26.5 46.7 23.8 50 23.8" fill="#ffffff" data-fill-palette-color="quaternary"></path><circle cx="50" cy="48.7" r="1.5" fill="#ffffff" data-fill-palette-color="quaternary"></circle></g></svg></g></svg></g></svg></g></svg></g><g></g></svg></g><defs></defs></svg><rect width="395.52" height="167.3689588590819" fill="none" stroke="none" visibility="hidden"></rect></g></svg></g></svg>