<svg xmlns="http://www.w3.org/2000/svg" version="1.1" xmlns:xlink="http://www.w3.org/1999/xlink" xmlns:svgjs="http://svgjs.dev/svgjs" width="2000" height="464" viewBox="0 0 2000 464"><g transform="matrix(1,0,0,1,-1.2121212121212466,-2.4625590242609974)"><svg viewBox="0 0 396 92" data-background-color="#ffffff" preserveAspectRatio="xMidYMid meet" height="464" width="2000" xmlns="http://www.w3.org/2000/svg" xmlns:xlink="http://www.w3.org/1999/xlink"><g id="tight-bounds" transform="matrix(1,0,0,1,0.2400000000000091,0.48826601343105835)"><svg viewBox="0 0 395.52 91.02346797313787" height="91.02346797313787" width="395.52"><g><svg viewBox="0 0 538.1925292456322 123.85758103047093" height="91.02346797313787" width="395.52"><g transform="matrix(1,0,0,1,142.6725292456322,17.11779882548477)"><svg viewBox="0 0 395.52 89.62198337950139" height="89.62198337950139" width="395.52"><g id="textblocktransform"><svg viewBox="0 0 395.52 89.62198337950139" height="89.62198337950139" width="395.52" id="textblock"><g><svg viewBox="0 0 395.52 89.62198337950139" height="89.62198337950139" width="395.52"><g transform="matrix(1,0,0,1,0,0)"><svg width="395.52" viewBox="0.98 -38.18 220.31 49.92" height="89.62198337950139" data-palette-color="#000000"><path d="M13.18 0.61L13.18 0.61Q5.03 0.61 5.03-7.86L5.03-7.86 5.03-19.31 2.27-19.31Q1.54-19.31 1.26-19.62 0.98-19.92 0.98-20.65L0.98-20.65 0.98-23.66Q0.98-24.39 1.26-24.69 1.54-25 2.27-25L2.27-25 5.03-25 5.03-28.93Q5.03-29.52 5.27-29.83L5.27-29.83Q6.3-31.18 8.28-32.74L8.28-32.74Q8.62-32.98 8.89-32.98L8.89-32.98Q9.18-32.98 9.47-32.74L9.47-32.74Q10.52-31.93 11.24-31.23 11.96-30.52 12.48-29.83L12.48-29.83Q12.72-29.52 12.72-28.93L12.72-28.93 12.72-25 17.04-25Q17.77-25 18.05-24.69 18.33-24.39 18.33-23.66L18.33-23.66 18.33-20.65Q18.33-19.92 18.05-19.62 17.77-19.31 17.04-19.31L17.04-19.31 12.72-19.31 12.72-9.2Q12.72-5.3 15.55-5.3L15.55-5.3Q15.99-5.3 16.36-5.38 16.72-5.47 16.99-5.57L16.99-5.57Q17.5-5.76 17.71-5.71 17.92-5.66 18.09-5.18L18.09-5.18 19.51-1.39Q19.73-0.78 19.21-0.51L19.21-0.51Q18.85-0.34 17.44 0.13 16.04 0.61 13.18 0.61ZM35.84 0.61L35.84 0.61Q31.71 0.61 28.66-0.72 25.61-2.05 23.92-4.86 22.24-7.67 22.24-12.11L22.24-12.11Q22.24-18.77 25.66-22.19 29.07-25.61 34.74-25.61L34.74-25.61Q38.43-25.61 40.98-24.29 43.53-22.97 44.86-20.65 46.19-18.33 46.19-15.36L46.19-15.36Q46.19-12.45 44.7-11.3 43.21-10.16 40.35-10.16L40.35-10.16 29.88-10.16Q30.08-7.64 31.72-6.32 33.37-5 36.2-5L36.2-5Q38.45-5 39.8-5.68 41.16-6.35 41.7-6.74L41.7-6.74Q42.16-7.08 42.75-7.06L42.75-7.06Q43.21-7.06 44.08-6.87 44.94-6.69 45.8-6.2L45.8-6.2Q46.41-5.88 46.41-5.32L46.41-5.32Q46.41-5 46.29-4.42L46.29-4.42Q46.21-4.08 46.04-3.43 45.87-2.78 45.6-2.22L45.6-2.22Q45.46-1.95 45.14-1.71L45.14-1.71Q44.65-1.37 43.56-0.81 42.48-0.24 40.6 0.18 38.72 0.61 35.84 0.61ZM29.83-15.16L29.83-15.16 37.79-15.16Q39.04-15.16 39.04-16.31L39.04-16.31Q39.04-18.04 37.95-19.23 36.86-20.41 34.69-20.41L34.69-20.41Q32.32-20.41 31.21-18.9 30.1-17.38 29.83-15.16ZM58.52 0.61L58.52 0.61Q55.9 0.61 54.18 0.17 52.46-0.27 51.42-0.89 50.39-1.51 49.8-2.03L49.8-2.03Q49.36-2.44 49.7-2.95L49.7-2.95 52.19-6.64Q52.73-7.42 53.41-6.74L53.41-6.74Q54.12-6.05 55.33-5.41 56.54-4.76 58.34-4.76L58.34-4.76Q59.96-4.76 60.99-5.31 62.03-5.86 62.03-6.91L62.03-6.91Q62.03-7.64 61.57-8.11 61.1-8.57 59.93-9.06 58.76-9.55 56.66-10.3L56.66-10.3Q53.56-11.43 51.97-13.01 50.39-14.6 50.39-17.65L50.39-17.65Q50.39-20.46 51.94-22.22 53.49-23.97 55.92-24.79 58.34-25.61 60.98-25.61L60.98-25.61Q64.33-25.61 65.68-24.99 67.04-24.37 67.43-24.02L67.43-24.02Q67.79-23.71 67.94-23.29L67.94-23.29Q68.26-22.34 68.43-20.78L68.43-20.78Q68.53-19.87 67.96-19.58L67.96-19.58Q67.67-19.41 67.04-19.21 66.4-19.02 65.77-18.87 65.13-18.73 64.81-18.73L64.81-18.73Q64.72-18.73 64.61-18.79 64.5-18.85 64.23-19.09L64.23-19.09Q63.91-19.41 63.14-19.82 62.37-20.24 61.03-20.24L61.03-20.24Q59.71-20.24 58.82-19.81 57.93-19.38 57.93-18.31L57.93-18.31Q57.93-17.14 59.06-16.55 60.2-15.97 62.81-15.04L62.81-15.04Q64.86-14.33 66.39-13.49 67.91-12.65 68.75-11.29 69.58-9.94 69.58-7.64L69.58-7.64Q69.58-4.66 67.95-2.84 66.33-1.03 63.8-0.21 61.27 0.61 58.52 0.61ZM84.22 0.61L84.22 0.61Q76.07 0.61 76.07-7.86L76.07-7.86 76.07-19.31 73.31-19.31Q72.58-19.31 72.29-19.62 72.01-19.92 72.01-20.65L72.01-20.65 72.01-23.66Q72.01-24.39 72.29-24.69 72.58-25 73.31-25L73.31-25 76.07-25 76.07-28.93Q76.07-29.52 76.31-29.83L76.31-29.83Q77.34-31.18 79.31-32.74L79.31-32.74Q79.66-32.98 79.92-32.98L79.92-32.98Q80.22-32.98 80.51-32.74L80.51-32.74Q81.56-31.93 82.28-31.23 83-30.52 83.51-29.83L83.51-29.83Q83.76-29.52 83.76-28.93L83.76-28.93 83.76-25 88.08-25Q88.81-25 89.09-24.69 89.37-24.39 89.37-23.66L89.37-23.66 89.37-20.65Q89.37-19.92 89.09-19.62 88.81-19.31 88.08-19.31L88.08-19.31 83.76-19.31 83.76-9.2Q83.76-5.3 86.59-5.3L86.59-5.3Q87.03-5.3 87.39-5.38 87.76-5.47 88.03-5.57L88.03-5.57Q88.54-5.76 88.75-5.71 88.96-5.66 89.13-5.18L89.13-5.18 90.54-1.39Q90.76-0.78 90.25-0.51L90.25-0.51Q89.89-0.34 88.48 0.13 87.08 0.61 84.22 0.61ZM118.79-22.66L118.79-22.66 118.79-2.86Q118.79 4.27 114.72 8.01 110.66 11.74 103.58 11.74L103.58 11.74Q100.65 11.74 98.94 11.32 97.23 10.89 96.35 10.5L96.35 10.5Q95.79 10.23 95.62 9.94L95.62 9.94Q95.38 9.55 95.07 8.79 94.77 8.03 94.5 7.13L94.5 7.13Q94.42 6.79 94.47 6.62L94.47 6.62Q94.57 6.37 94.84 6.1L94.84 6.1Q95.28 5.66 96.1 5.08 96.91 4.49 97.35 4.32L97.35 4.32Q97.82 4.15 98.21 4.37L98.21 4.37Q98.84 4.71 100.03 5.14 101.21 5.57 103.36 5.57L103.36 5.57Q106.78 5.57 108.93 3.81 111.07 2.05 111.07-1.61L111.07-1.61 111.07-2.49 110.98-2.49Q110.44-1.81 109.58-1.1 108.73-0.39 107.38 0.1 106.02 0.59 103.9 0.59L103.9 0.59Q100.21 0.59 97.85-1.01 95.5-2.61 94.39-5.42 93.28-8.23 93.28-11.82L93.28-11.82Q93.28-15.75 94.57-18.87 95.86-22 98.92-23.82 101.97-25.63 107.27-25.63L107.27-25.63Q110.44-25.63 112.6-25.17 114.76-24.71 116.23-24.02 117.69-23.34 118.79-22.66ZM107-19.73L107-19.73Q104.16-19.73 102.68-17.82 101.19-15.92 101.19-11.91L101.19-11.91Q101.19-5.64 106.36-5.64L106.36-5.64Q108.39-5.64 109.46-6.47 110.54-7.3 111.07-8.57L111.07-8.57 111.07-18.65Q110.54-19.04 109.56-19.38 108.58-19.73 107-19.73ZM137.63 0.61L137.63 0.61Q133.51 0.61 130.46-0.72 127.4-2.05 125.72-4.86 124.04-7.67 124.04-12.11L124.04-12.11Q124.04-18.77 127.45-22.19 130.87-25.61 136.54-25.61L136.54-25.61Q140.22-25.61 142.77-24.29 145.32-22.97 146.65-20.65 147.99-18.33 147.99-15.36L147.99-15.36Q147.99-12.45 146.5-11.3 145.01-10.16 142.15-10.16L142.15-10.16 131.68-10.16Q131.87-7.64 133.52-6.32 135.17-5 138-5L138-5Q140.25-5 141.6-5.68 142.96-6.35 143.49-6.74L143.49-6.74Q143.96-7.08 144.54-7.06L144.54-7.06Q145.01-7.06 145.87-6.87 146.74-6.69 147.59-6.2L147.59-6.2Q148.21-5.88 148.21-5.32L148.21-5.32Q148.21-5 148.08-4.42L148.08-4.42Q148.01-4.08 147.84-3.43 147.67-2.78 147.4-2.22L147.4-2.22Q147.25-1.95 146.94-1.71L146.94-1.71Q146.45-1.37 145.36-0.81 144.27-0.24 142.39 0.18 140.51 0.61 137.63 0.61ZM131.63-15.16L131.63-15.16 139.59-15.16Q140.83-15.16 140.83-16.31L140.83-16.31Q140.83-18.04 139.75-19.23 138.66-20.41 136.49-20.41L136.49-20.41Q134.12-20.41 133.01-18.9 131.9-17.38 131.63-15.16ZM177.52-15.55L177.52-15.55 177.52-1.29Q177.52-0.56 177.22-0.28 176.91 0 176.18 0L176.18 0 171.15 0Q170.42 0 170.11-0.28 169.81-0.56 169.81-1.29L169.81-1.29 169.81-14.28Q169.81-16.94 168.69-18.16 167.56-19.38 165.63-19.38L165.63-19.38Q163.71-19.38 162.67-18.55 161.63-17.72 161.07-16.46L161.07-16.46 161.07-1.29Q161.07-0.56 160.76-0.28 160.46 0 159.73 0L159.73 0 154.7 0Q153.96 0 153.66-0.28 153.35-0.56 153.35-1.29L153.35-1.29 153.35-21.75Q153.35-22.34 153.6-22.66L153.6-22.66Q154.11-23.34 154.83-24.05 155.55-24.76 156.6-25.56L156.6-25.56Q156.92-25.81 157.21-25.81L157.21-25.81Q157.48-25.81 157.82-25.56L157.82-25.56Q158.85-24.76 159.58-24.02 160.31-23.29 160.87-22.51L160.87-22.51 161-22.51Q161.41-23.05 162.24-23.77 163.07-24.49 164.57-25.05 166.07-25.61 168.42-25.61L168.42-25.61Q170.71-25.61 172.79-24.68 174.86-23.75 176.19-21.56 177.52-19.36 177.52-15.55ZM182.99-33.2L182.99-33.2Q182.99-33.52 183.19-33.76 183.38-34.01 183.7-34.4L183.7-34.4Q184.38-35.18 185.29-36.05 186.19-36.91 187.12-37.72L187.12-37.72Q187.7-38.18 188-38.18L188-38.18Q188.29-38.18 188.9-37.72L188.9-37.72Q190.88-36.01 192.27-34.4L192.27-34.4Q192.59-34.03 192.79-33.78 193-33.52 193-33.2L193-33.2Q193-32.89 192.79-32.64 192.59-32.4 192.24-31.98L192.24-31.98Q191.58-31.23 190.71-30.36 189.83-29.49 188.9-28.71L188.9-28.71Q188.56-28.42 188.36-28.33 188.17-28.25 188-28.25L188-28.25Q187.82-28.25 187.64-28.33 187.46-28.42 187.07-28.71L187.07-28.71Q186.09-29.49 185.24-30.36 184.38-31.23 183.7-32.03L183.7-32.03Q183.38-32.42 183.19-32.65 182.99-32.89 182.99-33.2ZM191.83-23.71L191.83-1.29Q191.83-0.56 191.52-0.28 191.22 0 190.49 0L190.49 0 185.46 0Q184.72 0 184.42-0.28 184.11-0.56 184.11-1.29L184.11-1.29 184.11-23.71Q184.11-24.44 184.42-24.72 184.72-25 185.46-25L185.46-25 190.49-25Q191.22-25 191.52-24.72 191.83-24.44 191.83-23.71L191.83-23.71ZM210.72 0.61L210.72 0.61Q206.6 0.61 203.54-0.72 200.49-2.05 198.81-4.86 197.12-7.67 197.12-12.11L197.12-12.11Q197.12-18.77 200.54-22.19 203.96-25.61 209.62-25.61L209.62-25.61Q213.31-25.61 215.86-24.29 218.41-22.97 219.74-20.65 221.07-18.33 221.07-15.36L221.07-15.36Q221.07-12.45 219.58-11.3 218.1-10.16 215.24-10.16L215.24-10.16 204.77-10.16Q204.96-7.64 206.61-6.32 208.26-5 211.09-5L211.09-5Q213.33-5 214.69-5.68 216.04-6.35 216.58-6.74L216.58-6.74Q217.05-7.08 217.63-7.06L217.63-7.06Q218.1-7.06 218.96-6.87 219.83-6.69 220.68-6.2L220.68-6.2Q221.29-5.88 221.29-5.32L221.29-5.32Q221.29-5 221.17-4.42L221.17-4.42Q221.1-4.08 220.93-3.43 220.76-2.78 220.49-2.22L220.49-2.22Q220.34-1.95 220.02-1.71L220.02-1.71Q219.54-1.37 218.45-0.81 217.36-0.24 215.48 0.18 213.6 0.61 210.72 0.61ZM204.72-15.16L204.72-15.16 212.68-15.16Q213.92-15.16 213.92-16.31L213.92-16.31Q213.92-18.04 212.83-19.23 211.75-20.41 209.57-20.41L209.57-20.41Q207.21-20.41 206.1-18.9 204.98-17.38 204.72-15.16Z" opacity="1" transform="matrix(1,0,0,1,0,0)" fill="#ffffff" class="wordmark-text-0" data-fill-palette-color="primary" id="text-0"></path></svg></g></svg></g></svg></g></svg></g><g><svg viewBox="0 0 121.51492989733303 123.85758103047093" height="123.85758103047093" width="121.51492989733303"><g><svg xmlns="http://www.w3.org/2000/svg" xmlns:xlink="http://www.w3.org/1999/xlink" version="1.1" x="0" y="0" viewBox="19.915 19.17 60.169999999999995 61.33" enable-background="new 0 0 100 100" xml:space="preserve" height="123.85758103047093" width="121.51492989733303" class="icon-icon-0" data-fill-palette-color="accent" id="icon-0"><g fill="#000000" data-fill-palette-color="accent"><path d="M75.085 19.17H24.915C22.155 19.17 19.915 21.41 19.915 24.17V75.5C19.915 78.25 22.155 80.5 24.915 80.5H75.085C77.845 80.5 80.085 78.25 80.085 75.5V24.17C80.085 21.41 77.845 19.17 75.085 19.17M74.085 74.5H25.915V25.17H74.085z" fill="#ffffff" data-fill-palette-color="accent"></path></g><path d="M69.585 36.66C69.585 38.32 68.245 39.66 66.585 39.66H33.415C31.765 39.66 30.415 38.32 30.415 36.66 30.415 35.01 31.765 33.66 33.415 33.66H66.585C68.245 33.66 69.585 35.01 69.585 36.66" fill="#ffffff" data-fill-palette-color="accent"></path><path d="M44.755 49.83C44.755 51.49 43.405 52.83 41.755 52.83H33.415C31.765 52.83 30.415 51.49 30.415 49.83S31.765 46.83 33.415 46.83H41.755C43.405 46.83 44.755 48.17 44.755 49.83" fill="#ffffff" data-fill-palette-color="accent"></path><path d="M44.755 63.16C44.755 64.82 43.405 66.16 41.755 66.16H33.415C31.765 66.16 30.415 64.82 30.415 63.16 30.415 61.51 31.765 60.16 33.415 60.16H41.755C43.405 60.16 44.755 61.51 44.755 63.16" fill="#ffffff" data-fill-palette-color="accent"></path><path d="M68.766 52.68L58.355 63.1C57.765 63.68 56.995 63.981 56.234 63.981 55.464 63.981 54.695 63.68 54.105 63.1L50.105 59.1A3.01 3.01 0 0 1 50.105 54.85 3.01 3.01 0 0 1 54.355 54.85L56.234 56.731 64.525 48.441A2.998 2.998 0 0 1 68.766 52.68" fill="#ffffff" data-fill-palette-color="accent"></path></svg></g></svg></g></svg></g><defs></defs></svg><rect width="395.52" height="91.02346797313787" fill="none" stroke="none" visibility="hidden"></rect></g></svg></g></svg>