<?xml version="1.0" encoding="UTF-8" standalone="no" ?>
<!DOCTYPE svg PUBLIC "-//W3C//DTD SVG 1.1//EN" "http://www.w3.org/Graphics/SVG/1.1/DTD/svg11.dtd">
<svg xmlns="http://www.w3.org/2000/svg" xmlns:xlink="http://www.w3.org/1999/xlink" version="1.1" width="980" height="280" viewBox="0 0 980 280" xml:space="preserve">
<desc>Created with Fabric.js 5.2.4</desc>
<defs>
</defs>
<rect x="0" y="0" width="100%" height="100%" fill="transparent"></rect>
<g transform="matrix(0 0 0 0 0 0)" id="76b5fee1-ad4e-4e08-b250-0e59ba82f78e"  >
</g>
<g transform="matrix(1 0 0 1 490 140)" id="75287fc2-e802-42ac-81ba-f50e6f9a74a1"  >
<rect style="stroke: none; stroke-width: 1; stroke-dasharray: none; stroke-linecap: butt; stroke-dashoffset: 0; stroke-linejoin: miter; stroke-miterlimit: 4; fill: rgb(255,255,255); fill-rule: nonzero; opacity: 1; visibility: hidden;" vector-effect="non-scaling-stroke"  x="-490" y="-140" rx="0" ry="0" width="980" height="280" />
</g>
<g transform="matrix(2.62 0 0 2.62 129.93 73.82)"  >
<path style="stroke: none; stroke-width: 1; stroke-dasharray: none; stroke-linecap: butt; stroke-dashoffset: 0; stroke-linejoin: miter; stroke-miterlimit: 4; fill: rgb(255,255,255); fill-rule: nonzero; opacity: 1;" vector-effect="non-scaling-stroke"  transform=" translate(-47.54, -24.42)" d="M 53.375 40.991 L 38.13 40.991 L 38.13 30.699 C 35.691 28.398 34.02 24.244 34.02 20.384 C 34.02 13.469 39.646 7.843 46.561 7.843 C 49.791 7.843 52.859 9.073 55.203 11.305 C 55.92451269230568 11.91604663057275 56.53631569900161 12.645881284221081 57.012 13.462999999999994 C 57.235 13.808 57.469 14.351 57.514 14.459 C 58.116 15.845 58.447 17.511 58.496 19.405 L 60.89 24.748 C 61.157 25.278 61.127 25.943 60.791 26.487 C 60.459101932683524 27.027789544557592 59.869513053787664 27.356686168517495 59.235 27.355 L 58.03 27.355 L 58.03 29.272 C 58.0279772188756 32.015045730920434 56.072464399243 34.367627655527855 53.376 34.871 z M 40.211 38.911 L 51.295 38.911 L 51.295 32.886 L 52.335 32.886 C 54.32958724717213 32.88269678496099 55.945696784960994 31.266587247172126 55.949 29.272 L 55.949 25.274 L 58.847 25.274 L 56.423 19.867 L 56.42 19.652 C 56.396 17.944 56.12 16.473 55.602 15.279 C 55.5035418960785 15.041964418329085 55.38997523822257 14.811490906797916 55.262 14.588999999999997 L 55.227 14.533 C 54.86285410481929 13.905105679483286 54.39293989916565 13.344862393261229 53.838 12.877 L 53.787 12.831 C 51.845977397382256 10.962210346244365 49.25542618988095 9.919680189668968 46.56099999999999 9.922999999999998 C 40.793 9.923 36.101 14.616 36.101 20.383 C 36.101 23.809 37.673 27.617 39.84 29.436 L 40.211 29.747 z" stroke-linecap="round" />
</g>
<g transform="matrix(2.62 0 0 2.62 124.6 206.18)"  >
<path style="stroke: rgb(0,0,0); stroke-opacity: 0; stroke-width: 1; stroke-dasharray: none; stroke-linecap: butt; stroke-dashoffset: 0; stroke-linejoin: miter; stroke-miterlimit: 4; fill: rgb(255,255,255); fill-rule: nonzero; opacity: 1;" vector-effect="non-scaling-stroke"  transform=" translate(-45.46, -75.58)" d="M 39.633 86.037 C 36.936535600757 85.53362765552787 34.9810227811244 83.18104573092045 34.979 80.438 L 34.979 78.52 L 33.773 78.52 C 33.13848694621233 78.52168616851749 32.54889806731647 78.1927895445576 32.217 77.652 C 31.887059979815426 77.1279554172325 31.84966590215072 76.47110389138473 32.118 75.913 L 34.512 70.57 C 34.561 68.676 34.892 67.01 35.494 65.624 C 35.54 65.516 35.773 64.973 35.996 64.628 C 36.47168430099838 63.81088128422109 37.08348730769432 63.08104663057275 37.805 62.47 C 40.13073321508076 60.24365010511895 43.22742783592808 59.00310893671194 46.44699999999999 59.008 C 53.362 59.008 58.988 64.634 58.988 71.549 C 58.988 75.409 57.316 79.563 54.878 81.864 L 54.878 92.156 L 39.633 92.156 z M 52.798 80.914 L 53.169 80.603 C 55.336 78.784 56.908 74.976 56.908 71.55 C 56.908 65.782 52.215 61.09 46.448 61.09 C 43.75357381011904 61.086680189668975 41.16302260261774 62.12921034624436 39.222 63.998000000000005 L 39.171 64.044 C 38.61606010083435 64.51186239326123 38.1461458951807 65.07210567948329 37.782 65.7 L 37.747 65.756 C 37.667 65.876 37.51 66.203 37.407 66.446 C 36.888 67.64 36.613 69.111 36.589 70.819 L 36.586 71.034 L 34.162 76.441 L 37.06 76.441 L 37.06 80.439 C 37.06330321503901 82.43358724717213 38.67941275282787 84.04969678496099 40.674 84.053 L 41.714 84.053 L 41.714 90.078 L 52.798 90.078 z" stroke-linecap="round" />
</g>
<g transform="matrix(2.62 0 0 2.62 55.45 140)"  >
<path style="stroke: none; stroke-width: 1; stroke-dasharray: none; stroke-linecap: butt; stroke-dashoffset: 0; stroke-linejoin: miter; stroke-miterlimit: 4; fill: rgb(254,254,254); fill-rule: nonzero; opacity: 1;" vector-effect="non-scaling-stroke"  transform=" translate(-18.73, -50.5)" d="M 24.564 67.071 L 9.319 67.071 L 9.319 56.779 C 6.88 54.478 5.209 50.324 5.209 46.464 C 5.209 39.549 10.835 33.923 17.75 33.923 C 20.98 33.923 24.048 35.153 26.392 37.385 C 27.113512692305676 37.99604663057275 27.72531569900162 38.72588128422109 28.201 39.543 C 28.424 39.888 28.658 40.431 28.703 40.539 C 29.305 41.925 29.636 43.591 29.685 45.485 L 32.079 50.828 C 32.346 51.358 32.316 52.023 31.98 52.567 C 31.648101932683527 53.1077895445576 31.058513053787667 53.4366861685175 30.424 53.435 L 29.218 53.435 L 29.218 55.352 C 29.2159772188756 58.09504573092043 27.260464399243002 60.44762765552785 24.564 60.951 z M 11.399 64.99 L 22.483 64.99 L 22.483 58.965 L 23.523 58.965 C 25.517587247172127 58.96169678496099 27.133696784960993 57.345587247172126 27.137 55.351 L 27.137 51.353 L 30.035 51.353 L 27.611 45.946 L 27.608 45.731 C 27.584 44.023 27.308 42.552 26.79 41.358 C 26.69154189607851 41.12096441832909 26.57797523822257 40.890490906797915 26.45 40.668 L 26.415 40.612 C 26.050854104819294 39.98410567948329 25.580939899165646 39.42386239326123 25.026 38.956 L 24.975 38.91 C 23.033977397382262 37.04121034624436 20.44342618988096 35.998680189668974 17.749000000000002 36.002 C 11.981 36.002 7.289 40.695 7.289 46.462 C 7.289 49.888 8.861 53.696 11.028 55.515 L 11.399 55.826 z" stroke-linecap="round" />
</g>
<g transform="matrix(2.62 0 0 2.62 61.48 204.51)"  >
<path style="stroke: none; stroke-width: 1; stroke-dasharray: none; stroke-linecap: butt; stroke-dashoffset: 0; stroke-linejoin: miter; stroke-miterlimit: 4; fill: rgb(254,254,254); fill-rule: nonzero; opacity: 1;" vector-effect="non-scaling-stroke"  transform=" translate(-21.14, -75.09)" d="M 23.32 77.952 C 21.027 77.952 19.077 76.28 18.645 74.093 L 22.294 74.071 L 16.732 68.578 L 11.237 74.139 L 14.968 74.116 C 15.44 78.298 19.044 81.593 23.319 81.593 L 31.04 81.593 L 31.04 77.952 z" stroke-linecap="round" />
</g>
<g transform="matrix(2.62 0 0 2.62 184.35 209.37)"  >
<path style="stroke: none; stroke-width: 1; stroke-dasharray: none; stroke-linecap: butt; stroke-dashoffset: 0; stroke-linejoin: miter; stroke-miterlimit: 4; fill: rgb(252,252,252); fill-rule: nonzero; opacity: 1;" vector-effect="non-scaling-stroke"  transform=" translate(-68.64, -76.94)" d="M 73.941 68.578 L 73.941 73.184 C 73.93769425208514 75.81592318545599 71.80492318545599 77.94869425208513 69.173 77.952 L 65.23 77.952 L 65.23 74.244 L 59.703 79.772 L 65.23 85.301 L 65.23 81.593 L 69.173 81.593 C 73.81 81.593 77.582 77.821 77.582 73.185 L 77.582 68.579 z" stroke-linecap="round" />
</g>
<g transform="matrix(2.62 0 0 2.62 192.36 76.94)"  >
<path style="stroke: none; stroke-width: 1; stroke-dasharray: none; stroke-linecap: butt; stroke-dashoffset: 0; stroke-linejoin: miter; stroke-miterlimit: 4; fill: rgb(255,255,255); fill-rule: nonzero; opacity: 1;" vector-effect="non-scaling-stroke"  transform=" translate(-71.72, -25.76)" d="M 77.568 27.063 C 77.424 22.551 73.719 18.923 69.173 18.923 L 62.149 18.923 L 62.149 22.564 L 69.173 22.564 C 71.699304862966 22.56786407383198 73.78447477509685 24.54077247229185 73.928 27.063000000000002 L 70.233 27.063 L 75.761 32.59 L 81.29 27.063 z" stroke-linecap="round" />
</g>
<g transform="matrix(2.62 0 0 2.62 66.24 72.22)"  >
<path style="stroke: none; stroke-width: 1; stroke-dasharray: none; stroke-linecap: butt; stroke-dashoffset: 0; stroke-linejoin: miter; stroke-miterlimit: 4; fill: rgb(255,255,255); fill-rule: nonzero; opacity: 1;" vector-effect="non-scaling-stroke"  transform=" translate(-22.98, -23.9)" d="M 31.04 20.744 L 25.513 15.215 L 25.513 18.923 L 23.32 18.923 C 18.683 18.923 14.911 22.695 14.911 27.332 L 14.911 32.59 L 18.552 32.59 L 18.552 27.332 C 18.55530574791486 24.700076814544015 20.68807681454401 22.567305747914865 23.319999999999997 22.564 L 25.513 22.564 L 25.513 26.272 z" stroke-linecap="round" />
</g>
<g transform="matrix(2.62 0 0 2.62 194.33 140)"  >
<path style="stroke: none; stroke-width: 1; stroke-dasharray: none; stroke-linecap: butt; stroke-dashoffset: 0; stroke-linejoin: miter; stroke-miterlimit: 4; fill: rgb(255,255,255); fill-rule: nonzero; opacity: 1;" vector-effect="non-scaling-stroke"  transform=" translate(-72.43, -50.41)" d="M 80.853 59.292 L 80.853 64.902 L 69.769 64.902 L 69.769 58.877 L 68.729 58.877 C 66.73441275282786 58.873696784961 65.118303215039 57.257587247172125 65.115 55.263 L 65.115 51.265 L 62.217 51.265 L 64.641 45.858 L 64.644 45.643 C 64.668 43.935 64.944 42.464 65.462 41.27 C 65.565 41.027 65.722 40.7 65.802 40.58 L 65.836 40.524 C 66.20014589518071 39.89610567948329 66.67006010083435 39.33586239326123 67.225 38.868 L 67.276 38.822 C 69.21702260261773 36.95321034624436 71.80757381011904 35.91068018966897 74.502 35.914 C 77.555 35.914 80.299 37.237 82.213 39.331 L 84.871 39.331 C 82.612 36.016 78.808 33.834 74.503 33.834 C 71.273 33.834 68.205 35.064 65.862 37.296 C 65.14048730769431 37.90704663057275 64.52868430099838 38.63688128422109 64.053 39.454 C 63.83 39.799 63.596 40.342 63.551 40.45 C 62.949 41.836 62.618 43.501 62.569 45.396 L 60.175 50.739 C 59.908 51.269 59.938 51.934 60.274 52.478 C 60.61 53.022000000000006 61.191 53.346 61.829 53.346 L 63.035 53.346 L 63.035 55.263 C 63.0370227811244 58.006045730920434 64.992535600757 60.358627655527854 67.689 60.862 L 67.689 66.982 L 82.934 66.982 L 82.934 59.291 z" stroke-linecap="round" />
</g>
<g transform="matrix(2.62 0 0 2.62 229.59 130.59)"  >
<polygon style="stroke: none; stroke-width: 1; stroke-dasharray: none; stroke-linecap: butt; stroke-dashoffset: 0; stroke-linejoin: miter; stroke-miterlimit: 4; fill: rgb(255,255,255); fill-rule: nonzero; opacity: 1;" vector-effect="non-scaling-stroke"  points="-8.89,0.05 -5.78,-2.53 -3.57,2.95 8.89,-8.77 8.68,-5.76 -5.2,8.77 " />
</g>
<g transform="matrix(2.62 0 0 2.62 222.54 140)"  >
<polygon style="stroke: rgb(255,255,255); stroke-opacity: 0; stroke-width: 1; stroke-dasharray: none; stroke-linecap: butt; stroke-dashoffset: 0; stroke-linejoin: miter; stroke-miterlimit: 4; fill: rgb(255,255,255); fill-rule: nonzero; opacity: 1;" vector-effect="non-scaling-stroke"  points="7.04,-2.61 7.04,7.05 -7.05,7.05 -7.05,-7.04 6.96,-7.04 9.22,-9.17 9.22,-9.22 -9.22,-9.22 -9.22,9.22 9.22,9.22 9.22,-4.89 " />
</g>
<g transform="matrix(1 0 0 1 613.25 140)" style="" id="fee3fc57-0296-4a8d-9fb6-c99ee6ad7de7"  >
		<text xml:space="preserve" font-family="Lato" font-size="135" font-style="normal" font-weight="400" style="stroke: none; stroke-width: 1; stroke-dasharray: none; stroke-linecap: butt; stroke-dashoffset: 0; stroke-linejoin: miter; stroke-miterlimit: 4; fill: rgb(255,255,255); fill-rule: nonzero; opacity: 1; white-space: pre;" ><tspan x="-349.85" y="42.41" >talentprobe</tspan></text>
</g>
</svg>